<svg xmlns="http://www.w3.org/2000/svg" width="77" height="50" viewBox="0 0 77 50">
  <path fill="#E4134E" fill-rule="evenodd" d="M93.4402477,98.0789912 C94.0686245,98.0789912 94.6975416,98.0659859 95.325378,98.0836817 C95.7287323,98.0950879 95.7976873,97.8892419 95.7921752,97.5524902 C95.7868793,97.2349266 95.767533,97.0038162 95.3434273,97.0093595 C94.1047232,97.0254562 92.8655867,97.0251364 91.6269906,97.0091463 C91.2215828,97.0038162 91.1505743,97.204119 91.1560864,97.5374595 C91.1613823,97.8522515 91.1865649,98.0975398 91.6090494,98.0845345 C92.2188364,98.0656661 92.8298123,98.0796308 93.4402477,98.0789912 M74.004449,112.801832 C74.8859489,112.801832 75.6331055,112.818568 76.3778844,112.783816 C76.4889905,112.7787 76.668079,112.538102 76.6792112,112.396109 C76.7176877,111.903401 76.6967202,111.406215 76.6969363,110.910628 C76.6973686,109.431863 76.6970444,109.43165 75.1968949,109.525245 C75.1652275,109.527271 75.1352893,109.5552 75.0682798,109.589739 C75.1254541,110.716828 74.8357998,111.766312 74.004449,112.801832 M64.5787977,107.663463 C64.5833371,107.564751 64.5991167,107.522431 64.5844179,107.498126 C63.5347455,105.772686 62.4860459,104.0465 61.422107,102.329589 C61.3622307,102.233009 61.1753605,102.212968 61.0025407,102.137708 C61.0025407,102.307523 60.9918408,102.362742 61.0041619,102.412311 C61.397789,104.006525 61.7862283,105.602018 62.1996341,107.191329 C62.2453519,107.367326 62.4259535,107.633082 62.559216,107.64225 C63.2306086,107.688621 63.9069728,107.663463 64.5787977,107.663463 M67.8549167,112.804923 C67.1862262,111.717809 66.5858421,110.733351 65.9719481,109.757102 C65.905587,109.65178 65.7617326,109.52791 65.6515992,109.525778 C64.7202743,109.507443 63.7886253,109.515225 62.7961272,109.515225 C63.0614635,110.532835 63.2985909,111.49011 63.5711685,112.437364 C63.6129954,112.5833 63.815321,112.786268 63.9471786,112.788933 C65.2207925,112.815477 66.495055,112.804923 67.8549167,112.804923 M93.382425,124.161846 C94.0838638,124.161846 94.7855187,124.151186 95.4867413,124.166536 C95.8095761,124.173572 95.9418659,124.056844 95.9370023,123.735763 C95.9255459,122.973034 95.9282479,122.210093 95.9353811,121.447365 C95.9379751,121.156558 95.8184387,121.033967 95.5178683,121.035551 C94.0969414,121.042921 92.6761226,121.042388 91.2551957,121.035992 C90.9606778,121.034713 90.8251456,121.151654 90.8266587,121.443847 C90.8306577,122.206575 90.8328193,122.96941 90.824389,123.732032 C90.8209305,124.048529 90.9547334,124.173039 91.2781086,124.16643 C91.9792232,124.151932 92.6809862,124.161952 93.382425,124.161846 M71.4370101,102.153591 C71.4974268,102.359757 71.5125579,102.485439 71.568111,102.590121 C72.4150254,104.189452 73.2596701,105.790062 74.1305782,107.376707 C74.2109897,107.523283 74.4608705,107.647473 74.6407155,107.659945 C75.1779809,107.697149 75.7197856,107.667941 76.259753,107.675936 C76.5437871,107.680093 76.6967202,107.582767 76.6957521,107.278741 C76.6911,105.698705 76.7014757,104.118456 76.6801839,102.538633 C76.6784547,102.4089 76.4807765,102.171713 76.3712915,102.170114 C74.7539833,102.146022 73.136459,102.153591 71.4370101,102.153591 M70.4158708,114.641654 C68.5097731,114.641654 66.6035672,114.650075 64.6977937,114.634938 C64.2921697,114.631634 64.1445325,114.731518 64.2320773,115.154297 C64.3027616,115.496272 64.3486955,115.86671 64.2907647,116.205487 C64.2068947,116.69585 64.3573419,116.817588 64.8422966,116.81535 C68.2768608,116.798613 71.7113169,116.806928 75.1457731,116.807141 C76.7226594,116.807248 76.7055827,116.807141 76.7072053,115.231156 C76.7077443,114.75657 76.5442194,114.627263 76.0800161,114.6327 C74.1921838,114.654339 72.3039192,114.641761 70.4158708,114.641654 M46.7381507,84.2890136 C46.5450119,83.5003814 46.3417135,82.8215479 46.2248791,82.1285365 C46.1654351,81.7761145 46.0255797,81.6946715 45.7037176,81.6979761 C44.5529906,81.7095956 43.4015069,81.6861435 42.250996,81.7070372 C40.5786751,81.7376316 39.4323793,82.9093869 39.4301097,84.5595663 C39.4289208,85.4819824 39.4280561,86.404292 39.431947,87.3266015 C39.4325955,87.4726445 39.4595074,87.6186875 39.4844739,87.864722 C41.7999784,86.2803153 44.2264811,85.1322254 46.7381507,84.2890136 M57.377972,83.9814705 C57.8403379,83.8885146 58.324428,83.7812743 58.8121927,83.6949277 C61.2412893,83.2654333 63.6900564,83.0584147 66.1582779,83.0696078 C67.4536159,83.0754708 68.7499267,83.0968976 70.0437516,83.0535111 C70.4102507,83.041252 70.8333836,82.9056559 71.1184985,82.6855253 C71.6263661,82.2933412 71.674894,81.6915801 71.4517089,81.1304338 C71.2103664,80.5236624 70.6771,80.2719781 70.0290527,80.2716583 C67.6542123,80.2705923 65.2786153,80.2366933 62.9049637,80.289354 C61.2811708,80.3254917 59.7119582,80.7321735 58.1814382,81.2594207 C58.0226688,81.3141069 57.8162361,81.4726222 57.7865141,81.6144012 C57.6259073,82.3839519 57.5138284,83.1633098 57.377972,83.9814705 M48.3034724,116.807035 C51.0751824,116.807035 53.8466762,116.807674 56.6183862,116.806502 C57.269892,116.806182 57.3295521,116.714292 57.1199852,116.088226 C57.0355747,115.836115 56.9360331,115.583045 56.8985294,115.322726 C56.825035,114.811043 56.5760188,114.628435 56.0343222,114.630549 C51.0310858,114.649436 46.0277413,114.641654 41.0243968,114.641654 C39.4148704,114.641654 39.4345409,114.641867 39.4180042,116.228299 C39.413033,116.716104 39.5856367,116.819081 40.0425987,116.816096 C42.7961512,116.797974 45.5498118,116.807035 48.3034724,116.807035 M49.9350471,100.308119 C49.7142398,100.12306 49.6134013,100.024028 49.4987284,99.9447173 C48.6280365,99.3430627 47.9755579,98.5609331 47.4749316,97.6394764 C46.7010793,96.2153972 46.6822734,94.6412241 46.5094536,93.0958333 C46.4630873,92.6805168 46.4007252,92.2670126 46.3418216,91.8223809 C46.150412,91.8640618 46.0399543,91.8687522 45.947546,91.9114991 C44.4034079,92.6247646 42.9639993,93.4815147 41.9592883,94.8912029 C41.7181619,95.2293404 41.3993261,95.6108644 41.3783586,95.9867386 C41.3061612,97.2794857 41.3557699,98.5786289 41.3458265,99.8752136 C41.3434488,100.19928 41.4806022,100.311957 41.7977087,100.31132 C44.4617711,100.305667 47.1258334,100.308119 49.9350471,100.308119 M51.9932134,85.4893379 C54.1151468,85.5431712 55.9095979,83.7706142 55.890684,81.6419042 C55.871878,79.5193769 54.0802369,77.8319939 51.8859981,77.8159326 C50.2235125,77.8039579 48.0826651,79.3221656 48.0840695,81.6636507 C48.0853671,83.8926721 50.0155667,85.5911416 51.9932134,85.4893379 M54.6909967,101.134488 C54.9046707,101.851804 55.1006196,102.491729 55.2857606,103.134638 C55.8546933,105.10931 56.4151959,107.08622 56.9868307,109.060146 C57.6174771,111.237573 58.252771,113.41372 58.8962789,115.587416 C59.0164638,115.993458 59.1311366,116.416343 59.3430814,116.777293 C59.734763,117.444507 60.7239106,117.717298 61.4330231,117.417431 C62.1864483,117.098908 62.5992056,116.203142 62.3724539,115.31068 C62.0018478,113.851636 61.6054106,112.398881 61.2309136,110.94069 C60.4599794,107.938706 59.7010421,104.933738 58.927514,101.932395 C58.5612311,100.5113 58.5506393,100.510874 57.0618381,100.74305 C56.2884181,100.863722 55.5171597,100.997613 54.6909967,101.134488 M54.6314446,107.633615 C54.5071527,107.208491 54.408908,106.873125 54.3113118,106.537653 C53.9303301,105.228809 53.5397292,103.922737 53.1751756,102.609522 C53.0759582,102.251984 52.8915738,102.142078 52.524102,102.143038 C48.328547,102.154124 44.1331,102.154977 39.937653,102.142177 C39.5281382,102.141012 39.4163835,102.272451 39.4218956,102.663249 C39.4422146,104.101506 39.4294612,105.54019 39.4300016,106.978767 C39.4303258,107.672738 39.4314066,107.674656 40.1425726,107.675403 C44.7160832,107.680519 49.2895938,107.685636 53.8631044,107.687448 C54.0930985,107.687448 54.3229845,107.656108 54.6314446,107.633615 M56.1478061,112.812305 C55.8565307,111.8194 55.567633,110.964888 55.3644427,110.091188 C55.2535527,109.614044 55.0454989,109.49561 54.565732,109.497209 C49.1646534,109.515438 43.7633585,109.508935 38.3622799,109.508615 C37.5780519,109.508615 37.576863,109.507763 37.5766468,108.711455 C37.5761064,106.27872 37.5740529,103.845984 37.5778357,101.413036 C37.579565,100.192351 37.4684588,100.319419 38.6649037,100.309825 C38.736885,100.309292 38.8095147,100.303216 38.8808474,100.310251 C39.2684221,100.348734 39.4367025,100.194163 39.4262188,99.7950499 C39.4066563,99.0496975 39.4044947,98.303066 39.4271915,97.5579268 C39.4398369,97.1401586 39.2820401,96.9981664 38.8603122,97.0064812 C37.7625443,97.0282278 36.6630471,97.0391011 35.5660358,97.0021106 C35.0299593,96.9840951 34.8624354,97.1303513 34.8649997,97.6822233 C34.8877261,102.476698 34.8778908,107.271279 34.8782151,112.065967 C34.8783231,112.810147 34.8796201,112.811959 35.6602815,112.811959 C42.2318659,112.812492 48.8033421,112.812305 55.3748184,112.812305 C55.5858985,112.812305 55.7968706,112.812305 56.1478061,112.812305 M54.9568733,86.9951798 C54.8837032,86.9594686 54.810425,86.9237574 54.7372549,86.8881527 C54.3903183,87.2496358 54.0475968,87.6152763 53.693635,87.969937 C53.5909591,88.0728067 53.4080878,88.2437942 53.3428075,88.2136262 C52.8200249,87.9721756 52.0775157,88.1668285 51.7781343,87.4604921 C51.7458184,87.3837395 51.565433,87.340353 51.4492471,87.330226 C50.2470739,87.2258638 49.2079934,86.7472265 48.2553769,86.0373722 C48.1183315,85.9352487 47.8568861,85.8948471 47.6911996,85.9460154 C45.156617,86.7293176 42.7732383,87.827092 40.6065598,89.3543607 C39.3491578,90.2407458 38.1255848,91.17169 37.2311153,92.4416246 C36.9080643,92.9003275 36.6786106,93.4049754 36.9343278,93.9862692 C37.182047,94.5498673 37.5315775,94.995032 38.2025377,95.0863888 C38.9781194,95.1917103 39.6367585,95.0108089 40.0718883,94.324087 C41.0616844,92.7622796 42.4453237,91.6195197 44.0784116,90.7863284 C45.1420262,90.2437306 46.269408,89.8202059 47.3785243,89.3681122 C47.6224608,89.2686537 47.9700458,89.1307124 48.0199788,89.6164919 C48.1831795,91.2045231 48.3688608,92.7906354 48.501583,94.3811183 C48.6582989,96.2601695 49.3720588,97.7930881 51.0849096,98.7786118 C52.4452037,99.5611678 53.8843961,99.4129928 55.3343965,99.170796 C57.0699441,98.880842 58.8046271,98.5850249 60.5375808,98.2805732 C60.952932,98.2075517 61.2031371,98.3577521 61.4155141,98.7076158 C63.2684366,101.759595 65.1340043,104.804005 66.995357,107.850867 C67.6529153,108.927108 68.3071232,110.005375 68.9678158,111.079804 C69.531777,111.99689 70.5110893,112.442161 71.3567067,112.257742 C72.887659,111.923871 73.5937452,110.372188 72.8567481,108.981155 C72.632158,108.55731 72.4029205,108.135811 72.1794112,107.71154 C70.0865513,103.74013 68.0003923,99.7653082 65.8985618,95.7985883 C65.2722386,94.616706 64.2945475,93.9507712 62.8993436,94.0236861 C62.344137,94.0525749 61.7896869,94.1274086 61.2393438,94.2100242 C59.6417062,94.4498758 58.0463383,94.704545 56.4499976,94.9529247 C56.1513728,94.999296 55.9703389,94.9072996 55.9300251,94.5792891 C55.7618527,93.2075509 55.5826561,91.8369852 55.4061616,90.466313 C55.2572274,89.309162 55.1066721,88.1522242 54.9568733,86.9951798 M74.550685,89.6404771 C74.550685,87.2074219 74.5529546,84.7743667 74.5475506,82.3413116 C74.5469022,82.05818 74.6430933,81.7045854 74.1419266,81.6982959 C73.7585671,81.6934989 73.4852329,81.6895547 73.4024437,82.20369 C73.1612093,83.6994049 71.8294483,84.9522834 70.0049509,84.9231814 C67.5422415,84.8839523 65.0707776,84.9229682 62.614661,85.0935293 C60.867765,85.2147344 59.1391345,85.6012686 57.4048839,85.8850398 C56.9297645,85.9627517 56.7257095,86.2249895 56.8040675,86.7492519 C57.0742673,88.5548552 57.3008029,90.3668545 57.5464686,92.1760821 C57.6450375,92.9021398 57.6684908,92.9275107 58.4135939,92.8148338 C59.5850723,92.6376633 60.756875,92.4597467 61.9230575,92.2518753 C64.3149746,91.8255789 66.3996204,92.8014021 67.5219225,94.905594 C68.3992073,96.5500169 69.2809234,98.1922012 70.1284863,99.8514416 C70.3152484,100.217082 70.5475122,100.318886 70.9281697,100.315253 C72.3324523,100.301403 73.7370592,100.309825 75.1414499,100.309825 C76.6836425,100.309931 76.6836425,100.309825 76.6972606,98.7774392 C76.7030969,98.111078 76.7256856,98.0834685 77.3947004,98.0827223 C79.7173382,98.080377 82.0400841,98.0817628 84.3629381,98.0816562 C85.8213688,98.0815496 87.2801237,98.0672651 88.7382301,98.0898645 C89.1900042,98.0967936 89.3485575,97.9474459 89.3133234,97.5080377 C89.2808995,97.1019955 89.3014347,96.6914761 89.3074871,96.2830887 C89.3267254,94.9791485 89.1115382,95.1066429 90.4772363,95.1230595 C90.983915,95.1290291 91.1715418,94.9859709 91.168446,94.4636273 C91.1492773,91.195995 91.1678671,87.9281495 91.1550056,84.6604106 C91.1477642,82.7724049 90.0391883,81.7044788 88.1183917,81.7027732 C84.4630201,81.6995751 80.8078648,81.701494 77.1527094,81.7024534 C76.4203598,81.7026666 76.4059851,81.7179105 76.4058771,82.4610242 C76.4053367,87.1851424 76.4077144,91.9090473 76.4042559,96.6331655 C76.4033912,97.7540722 76.5296286,97.6476847 75.3526381,97.6519487 C74.5700313,97.6548269 74.5521981,97.6359586 74.5516577,96.8330418 C74.5498203,94.4354847 74.5510092,92.0379276 74.550685,89.6404771 M93.41085,99.9147625 C88.7114263,99.9147625 84.0121107,99.9240367 79.312795,99.9023968 C78.7643974,99.8997318 78.6139502,100.048333 78.6155584,100.585494 C78.6335126,106.552364 78.6265955,112.51934 78.6274601,118.486316 C78.6275682,119.203206 78.6308106,119.20747 79.3379776,119.207577 C88.7005102,119.208536 98.0632589,119.204805 107.4259,119.2176 C107.949763,119.218237 108.139551,119.099057 108.137621,118.539403 C108.117179,112.554731 108.118152,106.569953 108.136741,100.585388 C108.138363,100.05313 108.004992,99.898879 107.450001,99.901614 C102.770356,99.9245697 98.0904951,99.9147625 93.41085,99.9147625 M35.2922693,95.1142116 C35.2125063,94.7706374 35.1750026,94.5458165 35.1076688,94.3301632 C34.7369546,93.1434838 35.0490894,92.0888827 35.8048924,91.1619894 C36.2634756,90.5998837 36.8341377,90.1280688 37.3184439,89.5844051 C37.4658649,89.4190673 37.5614076,89.1508599 37.5648661,88.9279578 C37.586374,87.4714719 37.5663792,86.0143465 37.5785923,84.5575408 C37.5955608,82.5364975 38.5051616,81.0484579 40.4039099,80.2519372 C40.982786,80.0091007 41.6556917,79.9191297 42.2918502,79.8891749 C43.4780275,79.8333161 44.6696088,79.849626 45.8574073,79.884058 C46.330149,79.8978095 46.5706268,79.7297002 46.7522011,79.3164091 C47.3359408,77.9891234 48.3276823,77.0557273 49.6711159,76.4784844 C52.2502275,75.3704763 55.3940566,76.2096373 56.9267382,78.7586741 C57.0718896,79.0000181 57.2055845,79.2480781 57.3589499,79.5182043 C58.0124012,79.3497752 58.6432638,79.1401981 59.2915272,79.029973 C60.6151822,78.804619 61.9434846,78.5185026 63.2785961,78.4643495 C65.5624332,78.3717134 67.8528632,78.4449481 70.1404832,78.4346078 C71.1012057,78.4302372 71.9059689,78.7783952 72.5321841,79.470767 C72.8169747,79.785559 73.1098713,79.8795808 73.5145226,79.8788346 C78.396061,79.8692405 83.2777075,79.8687075 88.1592459,79.8752102 C89.9520759,79.8775554 91.4052106,80.5365611 92.3867926,82.0725711 C92.8969299,82.8706908 93.0183037,83.7604872 93.0198168,84.6739488 C93.0256531,87.9075755 93.0215461,91.1410956 93.022843,94.3746157 C93.0230592,95.1099476 93.0260854,95.11144 93.7760521,95.1126126 C94.8388021,95.1142116 95.9022006,95.1341459 96.964086,95.1050439 C97.4917322,95.0904396 97.6715772,95.2948998 97.644233,95.7930451 C97.6125656,96.3741257 97.6302907,96.9576581 97.6151595,97.5399113 C97.6034869,97.9878476 97.8326163,98.0903975 98.2534796,98.0889051 C101.82952,98.0756866 105.405561,98.081443 108.981602,98.0817628 C109.161771,98.0817628 109.342373,98.0914635 109.521894,98.0816562 C109.869155,98.0627879 110.019494,98.2193844 109.997986,98.5583747 C109.987934,98.7175296 109.997662,98.8780703 109.997662,99.0379714 C109.998418,106.091316 109.999067,113.14466 110,120.198004 C110,121.081831 109.981882,121.111892 109.050125,121.106989 C105.520883,121.088653 101.991748,121.074262 98.4630466,121.024693 C97.8967077,121.016698 97.7451797,121.189071 97.7813865,121.718877 C97.8260235,122.373192 97.8113246,123.03369 97.7849531,123.689924 C97.7696057,124.07422 97.922755,124.18274 98.2881733,124.168242 C98.8457577,124.146282 99.4049633,124.171653 99.9631961,124.160993 C100.253499,124.155343 100.39022,124.251497 100.3846,124.558187 C100.353581,126.265824 100.627888,125.979388 99.0492722,125.985358 C95.0683639,126.000602 91.0874556,125.991008 87.1065473,125.989622 C86.3905177,125.989302 86.3905177,125.985571 86.3883561,125.28627 C86.3850057,124.161952 86.3850057,124.161952 87.5255732,124.162699 C88.9697373,124.163445 88.9697373,124.163445 88.9697373,122.731477 C88.9697373,122.464975 88.9698454,122.198473 88.9697373,121.931972 C88.969305,121.038444 88.9691969,121.037911 88.0887778,121.037805 C84.7203585,121.037591 81.3518311,121.037698 77.9834118,121.037698 C76.6971525,121.037698 76.7035292,121.037698 76.695207,119.763499 C76.6868849,118.48493 76.8539765,118.640887 75.5349689,118.637689 C72.022371,118.629587 68.5097731,118.632999 64.9972832,118.635983 C63.9647956,118.636836 62.954032,118.577886 61.9729904,119.126986 C60.9479603,119.700712 59.8882366,119.397433 58.8844982,118.873064 C58.5994914,118.724249 58.2417468,118.645151 57.9170747,118.644512 C51.4323866,118.631613 44.9475904,118.634917 38.4627942,118.634704 C37.5771872,118.634598 37.576863,118.633638 37.5763226,117.756101 C37.5757822,116.938793 37.5505996,116.120419 37.5856175,115.304711 C37.6069092,114.805499 37.4648922,114.611912 36.9256814,114.630248 C35.8100803,114.668198 34.6921014,114.627689 33.5756357,114.648476 C33.1616895,114.656152 33,114.527591 33,114.104813 C33.0087564,107.957575 33.0084322,101.810337 33.0016231,95.6630988 C33.0010827,95.2390411 33.1881691,95.0983281 33.5913073,95.1100542 C34.138516,95.1261509 34.6866974,95.1142116 35.2922693,95.1142116" transform="translate(-33 -76)"/>
</svg>
