<svg xmlns="http://www.w3.org/2000/svg" width="53" height="53" viewBox="0 0 53 53">
  <path fill="#E4134E" fill-rule="evenodd" d="M77.1245201,113.134375 C76.6280933,113.129447 76.4662918,113.288433 76.4900483,113.746887 C76.5249341,114.415311 76.5178714,115.087155 76.4925096,115.756283 C76.4761368,116.187686 76.6540971,116.365678 77.1107156,116.365175 C81.246072,116.359946 85.3813213,116.360348 89.5166776,116.365985 C89.8990301,116.366583 90.0684294,116.231128 90.0607246,115.862273 C90.046278,115.175748 90.0598685,114.488821 90.0568722,113.802095 C90.0540899,113.170074 90.028086,113.142922 89.3699647,113.142118 C87.3380284,113.139604 85.3058781,113.141213 83.2739418,113.141213 C81.2241346,113.142822 79.1741133,113.154487 77.1245201,113.134375 Z M51.0684252,113.142327 C50.7754711,113.144039 50.4531039,113.178879 50.1964081,113.297899 C49.5084632,113.617197 49.2547622,114.203635 49.3670666,115.043518 C49.452418,115.683021 49.9050583,116.13755 50.6434867,116.282347 C50.9365478,116.339742 51.2427645,116.358673 51.5429917,116.359076 C54.8184306,116.364312 58.0938695,116.362801 61.3693085,116.361996 C62.205923,116.361794 63.0432862,116.376999 63.8789381,116.349308 C64.7511692,116.32051 65.5908855,115.701649 65.4920576,114.550322 C65.4190062,113.699766 64.7951284,113.141119 63.7785059,113.138199 C61.6601235,113.132359 59.541741,113.136487 57.4234656,113.135581 C55.3050831,113.135581 53.1867007,113.129841 51.0684252,113.142327 Z M42.9341485,93.2317845 C43.4688429,94.9794189 43.8359131,96.7770397 44.2733322,98.5537628 C44.8404871,100.856814 45.4023206,103.161019 45.9778833,105.462075 C46.2114928,106.396275 47.0204522,106.839012 48.0249198,106.612392 C48.9595706,106.401525 49.5011828,105.613084 49.2995017,104.698417 C49.0366245,103.506409 48.754271,102.318391 48.4594654,101.133734 C47.7395863,98.2406126 47.0053394,95.3510616 46.2826932,92.4586753 C46.0726043,91.6180423 45.4777781,91.1501022 44.6079419,91.1687946 C43.6048579,91.0350075 42.6315737,92.2428726 42.9341485,93.2317845 Z M52.8654681,85.9876853 C55.3064801,85.9653822 57.0819824,83.9311521 57.0974664,81.4493458 C57.1131529,78.9415555 55.1744105,76.9650317 52.8961326,76.9392641 C50.6361724,76.9136048 48.5555436,79.0039173 48.702895,81.4713241 C48.5543292,83.85006 50.5569306,86.0087973 52.8654681,85.9876853 Z M90.0497449,120.040221 C90.0497449,120.040221 90.025892,119.316808 90.055307,118.973097 C90.0976645,118.47715 89.9053442,118.304091 89.387213,118.306184 C85.3055931,118.322088 81.2237593,118.323134 77.1421394,118.305012 C76.6116005,118.302731 76.4828164,118.48845 76.4879507,118.97498 C76.5099852,121.101904 76.4967217,123.229142 76.4975774,125.35617 C76.4978983,126.055414 76.5001445,126.059181 77.2071732,126.05939 C81.1284548,126.060541 85.0497364,126.060751 88.971125,126.059495 C90.1242984,126.059181 90.049531,126.150105 90.0499588,125.021668 C90.0503867,123.73482 90.0500658,121.129108 90.0500658,121.129108 L90.0497449,120.040221 Z M57.6829312,104.39162 C57.6622179,104.255723 57.8845698,103.975519 58.0398145,103.932259 C59.1233575,103.630862 60.2178912,103.370867 61.310417,103.104427 C62.1012247,102.911725 62.1169711,102.893919 61.9923737,102.061608 C61.90096,101.452149 61.8065873,101.407688 61.237286,101.604432 C60.3394238,101.914787 59.4346924,102.204168 58.5317576,102.498574 C56.776826,103.07089 55.0210489,103.640584 53.2195122,104.226228 C53.4905829,105.495396 53.7582718,106.748942 54.0260663,108.002488 C54.0640057,108.180006 54.0766873,108.368666 54.1447456,108.532965 C54.7142582,109.907988 55.5727015,110.701518 56.8285038,110.524329 C57.6751109,110.404928 58.5040693,110.136194 59.3333448,109.90482 C61.5346711,109.290773 63.7329328,108.665038 65.9300319,108.035152 C66.8412098,107.773955 67.7405515,107.46644 68.6563794,107.225344 C69.2754562,107.062356 69.9372279,106.810445 70.5379163,106.899914 C71.3909699,107.026852 72.2014342,107.444155 73.0371562,107.714309 C75.3974262,108.477143 77.7598097,109.233203 80.1251523,109.979323 C80.5752459,110.121337 81.0417199,110.292518 81.5021702,110.29798 C82.4119743,110.308904 83.3864548,109.444367 83.5382121,108.600913 C83.7583448,107.376862 83.3682778,106.382546 82.331657,105.997033 C80.6996319,105.390196 79.0263914,104.901777 77.3692143,104.368023 C75.8453004,103.877092 74.3249797,103.372833 72.7917659,102.914674 C72.1962559,102.73672 71.5352239,102.476834 70.9645488,102.587387 C69.4174909,102.887036 67.9032996,103.367044 66.3751585,103.772002 C65.3231084,104.050786 64.2702128,104.326075 63.2166832,104.598742 C61.5342484,105.034069 59.8509682,105.46601 58.0769084,105.922858 C57.9243057,105.362449 57.7584929,104.884408 57.6829312,104.39162 Z M46.5712869,79.9782734 C44.7995823,82.1728565 43.0254905,84.3654182 41.25472,86.5606396 C40.7266337,87.2152802 40.8717329,87.9581211 41.6100989,88.3738013 C42.1094352,88.6549999 42.6029592,88.9551365 43.1263749,89.1802656 C43.373604,89.286553 43.7137256,89.3271954 43.962304,89.2432507 C46.0984172,88.5215822 48.0220712,89.5431746 48.62717,91.7306293 C48.6849814,91.9394802 48.8621518,92.1650349 49.0454459,92.2764291 C49.6238707,92.6279539 50.2428775,92.9090461 50.8220287,93.2592942 C51.0424798,93.3927119 51.3046547,93.610819 51.3639191,93.8403103 C51.6238107,94.8458372 51.8111526,95.8710471 52.0346136,96.8867878 C52.4361793,98.7118656 52.8606826,100.531836 53.2394143,102.361702 C53.3331372,102.81462 53.5224511,102.855262 53.885718,102.734293 C54.8521118,102.412771 55.8228648,102.105612 56.7914381,101.791219 C58.2862296,101.305957 59.7721988,100.789096 61.2793413,100.348839 C61.8460377,100.183184 61.807739,99.8641095 61.7044674,99.4410881 C61.5498195,98.8080455 61.3874911,98.1767052 61.2455056,97.5404708 C60.8388542,95.716989 60.4272209,93.8943583 60.0543015,92.0634289 C59.9976319,91.7853157 60.0424694,91.3934677 60.200231,91.1758925 C61.5793998,89.2742113 62.9957256,87.4007244 64.3994927,85.5178749 C65.1117034,84.5626721 65.8407282,83.6195982 66.5253306,82.6439679 C67.0381597,81.9132559 66.7888548,81.1249848 65.9859312,80.787504 C65.5712879,80.6131247 65.1480301,80.4598113 64.7352551,80.2810699 C62.6707574,79.3870435 60.6088544,78.4868463 58.5434225,77.5947351 C58.4804217,77.5676047 58.3899163,77.6072895 58.3180933,77.6151626 C58.3111393,77.6859145 58.294948,77.7258121 58.3062611,77.7539 C58.6140001,78.5175941 58.9134358,79.2851184 59.2439049,80.0383859 C59.3113688,80.1918056 59.4775374,80.337565 59.6322891,80.4065081 C60.6763182,80.8712358 61.7297923,81.3133017 62.7795298,81.7648366 C63.4470068,82.0520997 63.4874852,82.1551952 63.0357887,82.6749285 C61.8988671,83.9832519 60.7679653,85.2983846 59.592226,86.5694703 C58.5026328,87.7473551 59.0098572,87.5754229 57.758766,86.612347 C57.4390911,86.3663647 57.4539332,86.1285748 57.7337525,85.8285445 C58.5092754,84.997184 59.2616531,84.1430553 60.0182862,83.2932887 C60.1385794,83.1582751 60.2336516,82.9996421 60.3792697,82.798026 C59.9969053,82.631307 59.691346,82.4979957 59.3397036,82.3447888 C58.6642347,85.0686806 57.1523179,86.9408908 54.4496121,87.5186086 C51.7565588,88.0941986 49.6327966,87.028772 47.9414259,84.770459 C47.672297,85.1457096 47.4460336,85.4610606 47.178254,85.8343962 C48.2165746,86.276462 49.1801661,86.6979939 50.1522683,87.0977151 C51.4569155,87.6341522 51.4772584,87.6891578 50.8503635,88.9774792 C50.7097273,89.2663382 50.5323493,89.3180455 50.2671645,89.2054809 C48.4350537,88.4276365 46.5998293,87.6568141 44.7720778,86.8681175 C44.2272813,86.6329874 44.227385,86.5539368 44.5932467,86.0821871 C45.3339998,85.1270907 46.0520228,84.1525243 46.8168554,83.2181748 C47.108403,82.8619686 47.1890483,82.4875691 47.0783037,82.0893375 C46.796201,81.0737031 47.171819,80.1409494 47.2700049,79.0939289 C47.0373065,79.3888522 46.8073066,79.6861163 46.5712869,79.9782734 Z M72.3514605,109.683176 C72.0853837,109.59992 71.8207752,109.511044 71.5583691,109.416441 C70.8723587,109.169326 70.2035483,109.225112 69.5106159,109.436167 C68.1271633,109.857535 66.7292374,110.229903 65.3373945,110.622847 C65.0717372,110.697936 64.8067092,110.774934 64.5393738,110.851613 C65.0776104,111.201074 65.63483,111.476293 66.0869614,111.873586 C67.1667906,112.822166 67.4663237,114.074389 67.1167636,115.433731 C66.7791596,116.746407 65.9687633,117.672503 64.5990497,117.992691 C64.4467661,118.028326 64.302663,118.104688 64.1496452,118.129399 C63.3653636,118.25635 63.3643149,118.252638 63.36421,119.041496 C63.3638953,121.480505 63.3651539,123.919408 63.3631612,126.358311 C63.3626368,127.043656 63.3404026,127.065186 62.6476799,127.065504 C61.3604009,127.065928 61.5444627,127.132744 61.5405822,125.970034 C61.5326114,123.584159 61.5260041,121.198073 61.5476091,118.812305 C61.5521188,118.311288 61.4124206,118.134278 60.8996695,118.139157 C58.5055026,118.161853 56.111021,118.160474 53.716854,118.140111 C53.2263372,118.135975 53.0936658,118.310652 53.0972317,118.787169 C53.1159001,121.296283 53.1065659,123.805714 53.1053073,126.315039 C53.1049927,127.057231 53.0990146,127.06614 52.3844772,127.065186 C51.1300252,127.063383 51.2031255,127.188531 51.2034402,125.854325 C51.2040694,123.468344 51.1980914,121.08247 51.2107817,118.696596 C51.2127744,118.347348 51.17334,118.186777 50.7585455,118.121021 C49.3926076,117.904451 48.2773293,117.204046 47.8616957,115.836432 C47.1242948,113.41015 48.3485419,111.074653 51.0417175,110.923202 C51.8886116,110.875476 52.7403301,110.915778 53.6053681,110.915778 C53.3289084,110.23213 52.9983312,109.642237 52.8501379,109.008649 C52.253484,106.4569 51.7195474,103.890198 51.1498473,101.331874 C50.6835573,99.2376581 50.2011161,97.1470486 49.7190944,95.0565451 C49.6852187,94.9098673 49.5949182,94.7765527 49.5308375,94.6370869 C49.4865787,94.648329 49.4422151,94.6595711 49.3979564,94.6708132 C49.3909295,94.778886 49.3567391,94.8935344 49.3806514,94.993971 C49.7820215,96.6708495 50.1883209,98.3465612 50.598396,100.021425 C50.9495293,101.456067 51.3176529,102.88668 51.6580886,104.323974 C51.9401069,105.514896 51.250216,107.344391 49.7502433,108.051054 C47.3924692,109.161796 45.0668928,107.904588 44.5519393,105.32081 C44.2256622,103.683915 43.7726918,102.072899 43.3769852,100.450216 C42.7809605,98.0065402 42.1414113,95.5721977 41.6207943,93.1121891 C41.491479,92.5014028 41.7432924,91.8066188 41.8313903,91.1520306 C41.8493246,91.0192463 41.9191737,90.893674 41.9743398,90.7386176 C41.4823546,90.4666857 41.0120793,90.2036626 40.5390772,89.9460484 C38.8747599,89.0391489 38.4965679,86.765908 39.7179832,85.3124932 C41.3892225,83.3241233 43.016203,81.2976787 44.6596495,79.2855518 C44.9704046,78.9051228 45.2596596,78.5064519 45.5764976,78.1314319 C46.2116419,77.3794827 47.0149065,76.9642668 48.0046452,76.999584 C48.4317105,77.0148563 48.7587218,76.8971323 49.0911867,76.6065341 C50.5857057,75.3003274 52.3197672,74.7724782 54.2851907,75.0898029 C54.4212182,75.1117568 54.5531554,75.1619221 54.6857218,75.2032846 C55.125058,75.3405233 55.5371257,75.3893098 56.0015278,75.1954363 C56.7660922,74.8763087 57.5334884,75.0240471 58.2834747,75.3526139 C60.4412455,76.2979062 62.6055187,77.2279262 64.7690578,78.1594311 C65.6350398,78.53233 66.5222072,78.8588817 67.3708842,79.267522 C68.830164,79.9700483 69.3345249,82.1237622 68.323391,83.5383599 C67.0161851,85.367325 65.6322081,87.1403978 64.2797995,88.936273 C63.6248331,89.8061583 62.9768936,90.6818768 62.3051466,91.5381867 C61.9146839,92.0359155 62.192612,92.5361897 62.2852197,93.009101 C62.5454233,94.3374738 62.8748468,95.651847 63.1723872,96.9729018 C63.6049062,98.8927584 64.0335447,100.81357 64.4823199,102.817212 C64.9108536,102.733638 65.3183066,102.674458 65.7153767,102.573385 C67.2351714,102.186699 68.7946102,101.904161 70.2580852,101.359873 C71.8635656,100.762768 73.2291889,101.440159 74.6610954,101.856011 C76.2166536,102.307817 77.7580533,102.809788 79.3042774,103.295002 C80.6684324,103.723157 82.0677216,104.066572 83.3853106,104.61139 C85.4507882,105.465685 86.5567323,107.990601 85.3394072,110.281341 C85.2414507,110.465669 85.1295453,110.642468 84.9701299,110.91493 C85.2209994,110.91493 85.4016002,110.91493 85.5824108,110.915036 C87.4699096,110.915036 89.3574084,110.913657 91.2449072,110.915778 C91.9290298,110.916627 91.9819935,110.969974 91.9826227,111.679076 C91.9851398,114.241642 92.0223717,116.804951 91.9675202,119.366244 C91.9397274,120.65983 92.0265668,121.948856 91.9915374,123.241381 C91.9560885,124.548224 91.9857691,125.85687 91.9828325,127.164668 C91.9812593,127.910572 91.8990345,127.998387 91.1761069,127.998705 C86.0204884,128.000615 80.8646601,128.000721 75.7089367,127.998599 C74.9693334,127.998387 74.892772,127.919586 74.8924574,127.178985 C74.8908842,122.071246 74.8915135,116.963613 74.8916184,111.856086 C74.8916184,110.921293 74.8920379,110.921293 75.7961956,110.914824 C75.8657301,110.914294 75.9352646,110.914718 76.004799,110.914718 C76.0148674,110.886506 76.0250406,110.858401 76.0352138,110.83019 C74.8071912,110.44817 73.5788539,110.067105 72.3514605,109.683176 Z" transform="translate(-39 -75)"/>
</svg>
