<svg xmlns="http://www.w3.org/2000/svg" width="66" height="50" viewBox="0 0 66 50">
  <path fill="#E4134E" fill-rule="evenodd" d="M53.9018003,111.720918 C54.2378892,111.720918 54.5749422,111.70472 54.9098741,111.725089 C55.2978321,111.74866 55.354811,111.536913 55.3483515,111.21517 C55.3419883,110.900993 55.3476766,110.641426 54.9079459,110.658789 C54.2687407,110.684105 53.6271253,110.68265 52.9879202,110.657819 C52.6026617,110.642784 52.4550564,110.753168 52.4564921,111.168708 C52.4578523,111.577652 52.5511782,111.77126 52.9900412,111.727514 C53.2912293,111.697639 53.5977199,111.721888 53.9018003,111.720918 L53.9018003,111.720918 Z M61.9850039,123.310937 C61.9869258,122.671235 61.5420854,122.21156 60.916667,122.207195 C60.2973225,122.202927 59.8270295,122.668325 59.8173884,123.29503 C59.8079401,123.915624 60.2749552,124.389266 60.8986381,124.391604 C61.531673,124.394116 61.982973,123.945111 61.9850039,123.310937 L61.9850039,123.310937 Z M46.9488296,124.387229 C47.5456139,124.380245 48.0763566,123.863633 48.0738587,123.29212 C48.0713432,122.712459 47.5340445,122.201181 46.9334038,122.20671 C46.3245681,122.212336 45.8189887,122.712944 45.8210073,123.308124 C45.823038,123.888464 46.3515632,124.394116 46.9488296,124.387229 L46.9488296,124.387229 Z M53.9437391,124.389266 C54.5520927,124.380536 55.0359797,123.886524 55.0300022,123.280383 C55.0239283,122.67172 54.5283756,122.198368 53.9071994,122.207777 C53.3114756,122.216895 52.7770692,122.750094 52.790374,123.322092 C52.8038715,123.898455 53.3434841,124.397802 53.9437391,124.389266 L53.9437391,124.389266 Z M74.5531397,122.216604 C74.8132567,123.055832 75.008971,123.780311 75.2646531,124.482578 C75.4731902,125.055061 75.953992,125.305026 76.5404603,125.340915 C77.1503565,125.378162 77.6173715,125.132078 77.9502788,124.60693 C78.4498808,123.818529 77.9764062,123.08338 77.8407559,122.330674 C77.8320789,122.282563 77.7153251,122.221939 77.6485123,122.221454 C76.6614561,122.21447 75.6744964,122.216604 74.5531397,122.216604 L74.5531397,122.216604 Z M57.9236829,107.294116 C57.8294894,107.249497 57.8013373,107.224666 57.7731853,107.224569 C55.2516512,107.21807 52.7302135,107.209534 50.2087758,107.222532 C50.1016631,107.223114 49.9171324,107.413715 49.9010318,107.533702 C49.7188149,108.895459 49.7650922,108.94163 51.1163892,108.94163 L51.4537314,108.94163 C53.4455833,108.941533 55.4373388,108.935325 57.4290943,108.946577 C57.7884183,108.948711 57.9643684,108.859473 57.9307209,108.457706 C57.8985196,108.073594 57.9236829,107.684728 57.9236829,107.294116 L57.9236829,107.294116 Z M80.2243258,84.7707559 C81.0855655,84.7707559 81.6793611,84.7581461 82.2723853,84.7757998 C82.5975797,84.7855966 82.7578149,84.6346675 82.7826889,84.3351372 C82.8566362,83.4435301 82.8325334,82.5671517 82.3946345,81.7482933 C81.3879105,79.866044 79.5117519,79.0024694 77.4546297,79.5850403 C76.1693742,79.9490744 75.2799825,80.8421365 74.7604234,82.0819669 C74.6443445,82.3589937 74.6338357,82.5954752 75.0227578,82.764446 C75.6651445,83.0435097 76.309363,83.3600147 76.8737532,83.7708019 C77.9689825,84.5680297 79.1184913,85.0485586 80.2243258,84.7707559 L80.2243258,84.7707559 Z M70.4296399,88.6421464 C70.4418841,88.6152779 70.4541283,88.5883124 70.4662761,88.5613469 C69.8820252,88.3719095 69.2545822,88.2624956 68.7249,87.9722771 C68.0967821,87.6281277 67.5607368,87.8003964 66.9909476,88.0182542 C66.7666956,88.1039036 66.5468784,88.2023568 66.3298572,88.3053688 C64.7011856,89.0784441 63.307757,90.1300012 62.4038072,91.7373577 C62.0613552,92.3463121 61.7344254,92.9712712 61.7271945,93.7283419 C64.1324569,94.1217664 66.4980944,94.5086921 68.9142513,94.9038626 C68.9263027,94.6746559 68.9451992,94.4857035 68.9446208,94.2968481 C68.9397038,92.5836666 68.937872,90.8703881 68.9185898,89.1573036 C68.9144441,88.7868677 69.037561,88.6178969 69.4179989,88.6383635 C69.7542806,88.6565991 70.0923941,88.6421464 70.4296399,88.6421464 L70.4296399,88.6421464 Z M86.0214247,90.3262284 C85.8769046,90.3262284 85.7323844,90.3261314 85.5878643,90.3262284 C80.8017315,90.3300114 76.0155022,90.3390322 71.2293694,90.3289444 C70.7944592,90.3279744 70.6247758,90.4423352 70.6502283,90.8968686 C70.6837794,91.4929223 70.6570735,92.0922739 70.6588089,92.6900736 C70.6606407,93.3256055 70.6619905,93.3283215 71.3049556,93.3285155 C74.5814845,93.3294854 77.857917,93.3290004 81.1343495,93.3290004 L96.5889415,93.3290004 C97.9503616,93.3289034 99.3116854,93.3296794 100.673009,93.3285155 C101.321759,93.3278365 101.320506,93.3260905 101.323494,92.6534083 C101.325905,92.1042047 101.303055,91.5527702 101.343162,91.0061855 C101.393296,90.3245795 101.385101,90.2901451 100.710513,90.294316 C99.05851,90.3045009 97.406507,90.3222515 95.754504,90.3246765 C92.5101764,90.3296234 89.2658487,90.3262284 86.0214247,90.3262284 L86.0214247,90.3262284 Z M53.8975583,102.544602 C51.9699161,102.544602 50.0421775,102.54499 48.1145354,102.544505 C46.9635805,102.544214 46.4951193,102.06805 46.4928054,100.890686 C46.4902987,99.6138022 46.4968547,98.3368214 46.4879848,97.0598406 C46.4863459,96.8211282 46.4590615,96.5748498 46.3954303,96.3455462 C46.1112105,95.3223126 45.8091548,94.3041229 45.5142334,93.2838963 C44.9828158,91.4449082 44.4509162,89.6061141 43.9211375,87.766544 C43.4757186,86.2201994 43.0388802,84.6712358 42.5874837,83.1265401 C42.239922,81.9375367 41.9074003,80.7425193 41.5070053,79.5713636 C41.2599038,78.8484363 40.3600033,78.4848872 39.6796306,78.7402833 C38.9256964,79.023518 38.4997524,79.7974663 38.7067469,80.5547309 C38.9317703,81.3777603 39.1843672,82.1931268 39.4190316,83.0135372 C40.0250713,85.132753 40.6192525,87.2554607 41.2344513,89.3720576 C41.8677754,91.5508302 42.5154647,93.7254319 43.166914,95.8987727 C43.4090986,96.7068643 43.5443632,97.5177689 43.5118727,98.3702858 C43.4702231,99.4679169 43.5451345,100.570301 43.4923977,101.666962 C43.3950225,103.692963 45.105065,105.606833 47.3691817,105.568228 C51.1436736,105.504015 54.9211542,105.602759 58.6949712,105.520214 C59.8811161,105.494316 60.7266408,105.826243 61.4871311,106.712515 C62.2172518,107.56348 63.0638371,108.313664 63.8658804,109.101289 C64.4998794,109.724017 65.3171557,109.840803 65.9228098,109.40984 C66.7223465,108.840752 66.8319658,107.818779 66.1330823,107.104485 C65.1010022,106.049533 64.0528214,105.009907 62.9928786,103.983181 C61.9791166,103.000978 60.7718576,102.512398 59.3439138,102.537036 C57.5289762,102.568366 55.7130744,102.544602 53.8975583,102.544602 L53.8975583,102.544602 Z M77.4121124,120.546393 C77.2524558,119.807655 77.1321348,119.192008 76.9856864,118.582762 C76.2709915,115.608411 75.5443415,112.636969 74.8316712,109.662229 C74.3852881,107.798798 73.9604047,105.930322 73.517878,104.065921 C73.1423571,102.483493 72.7543027,100.903975 72.3737683,99.3227107 C72.0640961,98.0357391 70.820683,96.9169623 69.5080468,96.7074463 C67.5930345,96.4017081 65.6790827,96.0876281 63.769373,95.7507535 C61.9974347,95.4384194 60.2279066,95.199028 58.4170182,95.251504 C56.3942183,95.3101878 54.3684297,95.2649867 52.3439909,95.2649867 C50.6780083,95.2649867 50.7048105,95.2651807 50.6952873,96.9469348 C50.6840822,98.9510137 51.946681,100.097338 53.5318712,100.45885 C54.601648,100.7028 55.7157739,100.842672 56.8125458,100.857901 C60.3304879,100.906788 63.8496834,100.87148 67.3683004,100.878755 C68.4941884,100.880986 68.3807126,100.722491 68.707064,101.891319 C69.6071574,105.115344 70.5689538,108.321909 71.5000916,111.537204 C72.2609674,114.16469 73.0045857,116.797317 73.7724996,119.422669 C74.1028038,120.552116 74.1219896,120.546393 75.2991683,120.546393 L77.4121124,120.546393 Z M63.6869416,86.2247583 C63.8074554,85.8868167 63.912447,85.6342335 63.9878404,85.3728235 C64.1919426,84.6644459 64.2181664,84.656686 64.9168571,84.9050013 C65.8977429,85.2535157 66.8847027,85.5844734 67.8701198,85.9196991 C70.0830422,86.6726958 72.2977964,87.4203576 74.5094655,88.1768462 C75.3761043,88.4733696 76.237344,88.6868626 77.1780264,88.6800727 C81.9332113,88.6456383 86.6887819,88.664359 91.444256,88.664359 L92.1510453,88.664359 C92.0488496,88.451254 91.9977517,88.3055628 91.9158023,88.1804352 C91.4624777,87.4880623 90.803219,87.029455 90.0307739,86.8485534 C89.13338,86.6382614 88.2025315,86.4856833 87.2836379,86.4710366 C84.3764597,86.4243805 81.4680281,86.4618218 78.5602714,86.4423252 C78.2430791,86.4400942 77.8802844,86.3510499 77.6178536,86.1796541 C75.9886035,85.1155843 74.3054598,84.1589885 72.4960175,83.4405231 C70.399656,82.6081819 68.2602953,82.0529645 65.975643,82.444546 C65.8249526,82.4702505 65.5610756,82.4292203 65.5093993,82.3326102 C65.2940171,81.9305528 65.139663,81.4952251 64.9301618,80.9936476 C67.1982313,80.3579216 69.3410629,80.6953782 71.5123358,81.2963788 C71.4959459,81.1137313 71.5076116,81.0143082 71.4764709,80.9309868 C71.0104199,79.6890223 69.5908639,78.6964402 68.2531608,78.6910083 C65.2856293,78.6788835 62.411038,79.1517495 59.6970674,80.4119496 C56.9157056,81.7033831 54.8001583,83.713282 53.3278655,86.4164266 C52.3002203,88.3033318 51.7411327,90.3453371 51.3356279,92.4378784 C51.2669833,92.7923096 51.2745997,93.1617756 51.24558,93.5415234 C51.3709144,93.561893 51.4480432,93.5852696 51.5252684,93.5852696 C54.2242952,93.5877915 56.9233221,93.5851726 59.6223489,93.5925479 C59.9357812,93.5934174 60.0206229,93.4292965 60.0854111,93.1595447 C60.5787463,91.1062876 61.6875696,89.451596 63.3609759,88.190038 C63.9948784,87.7122251 64.6793967,87.3026988 65.3646863,86.8461285 C64.8123475,86.6415594 64.2759166,86.4428101 63.6869416,86.2247583 L63.6869416,86.2247583 Z M69.8283243,94.9957198 C71.6342957,95.4638329 72.9921487,96.4674729 73.702698,98.201121 C74.0357017,99.0134806 74.2055779,99.8962608 74.4204781,100.754307 C74.7059512,101.893938 74.9636579,103.040747 75.2325482,104.184549 C75.7484437,106.378842 76.2574939,108.574589 76.7811022,110.767038 C77.2186155,112.599237 77.6781105,114.4261 78.1183232,116.257619 C78.678857,118.58994 79.2490318,120.920224 79.7784248,123.259722 C80.1864363,125.062239 78.6968858,126.950308 76.875103,126.998031 C75.0913061,127.044785 74.0479459,126.260457 73.5125754,124.464536 C72.8645969,122.291099 72.2088091,120.119989 71.5762563,117.942089 C70.8810363,115.548175 70.210112,113.147276 69.52569,110.750258 C68.7923877,108.182038 68.0483838,105.61663 67.3281934,103.044724 C67.215971,102.644122 67.0222812,102.52074 66.6191867,102.535193 C65.7616106,102.565844 64.9021062,102.544505 63.9906363,102.544505 C64.5754656,103.152877 65.0996524,103.703536 65.6299131,104.248083 C66.2782773,104.914073 67.0002995,105.520699 67.5694138,106.248864 C68.9413428,108.004434 68.1168356,110.59186 65.9804636,111.197904 C64.8680731,111.513439 63.7753505,111.324002 62.8934788,110.464113 C61.9264761,109.521097 60.9662223,108.571388 60.0020155,107.625656 C59.8915285,107.517309 59.7747747,107.415364 59.5758788,107.232329 C59.5758788,108.227142 59.5769393,109.109825 59.5754931,109.992605 C59.5744326,110.658013 59.5696121,110.661795 58.8998446,110.664026 C58.4178859,110.665578 57.9357343,110.673047 57.4539684,110.663444 C57.1657958,110.657722 57.0490421,110.783625 57.0521272,111.068994 C57.058876,111.683186 57.0427753,112.297669 57.0547303,112.911668 C57.0612863,113.245535 56.9129097,113.382109 56.5948497,113.379781 C56.1449958,113.376483 55.6931173,113.357859 55.2462522,113.395592 C55.0825462,113.409462 54.8228149,113.541089 54.795627,113.661949 C54.7371055,113.922971 54.6724137,114.249078 55.0281704,114.417661 C56.2716799,115.006828 57.5126827,115.601233 58.7541676,116.194473 C59.6221561,116.609238 60.4878307,117.029046 61.3582295,117.438281 C61.6197926,117.561275 61.7410777,117.730827 61.7324007,118.037923 C61.7119616,118.764731 61.7436808,119.493284 61.7179391,120.219703 C61.7069482,120.530097 61.8319933,120.684809 62.0856507,120.812944 C64.0206201,121.790879 64.2238546,124.329709 62.4677277,125.574001 C61.5349509,126.234947 60.5428814,126.280827 59.5672982,125.723185 C58.6175531,125.180286 58.1368477,124.332716 58.1724234,123.203754 C58.2080955,122.07198 58.7482865,121.285325 59.740356,120.800043 C59.9944955,120.675691 60.0483892,120.49964 60.0854111,120.23435 C60.2344625,119.164848 59.9799374,118.454046 58.8354421,118.04384 C57.5452696,117.581353 56.3403246,116.878213 55.0969115,116.282742 C55.0293274,116.250344 54.9485349,116.245979 54.8133666,116.214455 C54.7963019,116.396133 54.7700781,116.54745 54.7696924,116.69867 C54.7663181,117.862551 54.7786587,119.026626 54.760919,120.190216 C54.7560985,120.507691 54.8550162,120.689853 55.1402,120.829821 C56.2443956,121.372041 56.8633544,122.580929 56.656842,123.746362 C56.4344217,125.000742 55.3765999,125.978484 54.1171826,126.093621 C53.0035388,126.195469 51.733227,125.414245 51.3488362,124.312249 C50.8758437,122.955924 51.3353387,121.54043 52.6925168,120.813817 C52.8617181,120.723317 53.0702552,120.501289 53.073726,120.336101 C53.1017816,119.027693 53.0851025,117.718315 53.079125,116.409324 C53.0789322,116.365093 53.0469237,116.321056 53.0007428,116.20233 C52.7425541,116.310774 52.4845582,116.40622 52.2377459,116.525043 C50.8800858,117.179102 49.5298493,117.849068 48.1656332,118.488771 C47.8837273,118.620979 47.7727582,118.787816 47.7960897,119.080557 C47.8050559,119.192978 47.8067913,119.307823 47.7954148,119.419759 C47.7218532,120.139874 47.844006,120.669775 48.5716201,121.116936 C49.6383117,121.77245 49.9318833,123.004229 49.5516382,124.238628 C49.2591271,125.18824 48.1805769,126.010881 47.1171632,126.09527 C45.9530964,126.187806 44.6716974,125.273889 44.3248105,124.202738 C43.8511431,122.740297 44.6330366,121.349732 45.6466058,120.861152 C45.9917573,120.694897 46.1095715,120.491298 46.0951099,120.11931 C46.0687897,119.441487 46.1038833,118.761239 46.0811303,118.083028 C46.0702358,117.755465 46.2067539,117.579219 46.4819109,117.447399 C48.3305925,116.561611 50.175996,115.66884 52.0232314,114.779755 C52.2686939,114.661709 52.5120353,114.535223 52.7672353,114.442881 C53.1649308,114.299032 53.1465163,113.961964 53.0632172,113.68193 C53.0225317,113.544872 52.7474711,113.412857 52.5676645,113.396077 C52.1214742,113.354076 51.6691137,113.375416 51.2192598,113.379878 C50.9360042,113.382691 50.8148155,113.255429 50.8195397,112.968315 C50.8286987,112.418917 50.8217571,111.869132 50.8201181,111.31954 C50.8180935,110.668003 50.8174186,110.66713 50.1916146,110.664608 C49.7417607,110.662862 49.2906535,110.642978 48.8423422,110.669458 C48.3902709,110.696327 48.2484503,110.496899 48.2635868,110.066712 C48.2862434,109.420995 48.2690822,108.773726 48.2697571,108.127137 C48.270914,106.997108 48.2635868,107.189261 47.3721704,107.2171 C46.0619445,107.258033 44.9048193,106.884299 43.8913465,106.065635 C42.5478588,104.980419 41.8616051,103.563664 41.8512891,101.825942 C41.8448296,100.759156 41.8058795,99.6898487 41.8624728,98.6260699 C41.918102,97.5823697 41.6467049,96.617529 41.3563149,95.6435705 C40.7955883,93.7623882 40.24055,91.87946 39.6913928,89.9948827 C39.156408,88.1586106 38.6264365,86.3208835 38.104178,84.4809254 C37.7440828,83.2118985 37.3405062,81.9512134 37.0638065,80.6633688 C36.5895607,78.4569517 38.8445183,76.4681985 40.9906278,77.1286589 C42.1865103,77.4966699 42.8939744,78.2787661 43.2326664,79.4783423 C43.8316681,81.5997891 44.4774292,83.7077531 45.0917603,85.8248349 C45.92157,88.6839526 46.6410856,91.5802206 47.5976758,94.3953982 C48.2564524,96.3342944 48.0873474,98.2774585 48.135553,100.233426 C48.151268,100.872741 48.1391202,100.874099 48.7715765,100.875554 C49.36489,100.877009 49.9582035,100.875845 50.6593045,100.875845 C50.4592516,100.63529 50.3109715,100.465155 50.1717539,100.287842 C49.10969,98.934912 48.8219031,97.3901194 49.0986992,95.724467 C49.3650828,94.1218634 49.6202828,92.5150889 49.9612887,90.927714 C50.6781047,87.5908804 52.0459844,84.5712307 54.4527894,82.1009786 C56.127449,80.3821712 58.1201686,79.1679482 60.3625928,78.3339581 C62.8165428,77.4212054 65.3559129,77.0534854 67.9535154,77.0331157 C70.4905716,77.0131341 72.3944003,78.4163095 73.1907554,80.8472774 C73.2207392,80.9387466 73.2576647,81.0278879 73.3048097,81.1539855 C75.0164911,78.2153293 77.5114158,76.9776328 80.7099482,78.1504375 C83.6249357,79.2193573 84.7198758,81.6272395 84.4271719,84.7447604 C84.6375408,84.7544602 84.8227464,84.766003 85.0080484,84.7712409 C86.3552961,84.8092642 87.712185,84.7575641 89.0474778,84.9049043 C90.8085217,85.0991917 92.3518694,85.8070842 93.3705484,87.3716645 C93.5448595,87.6393794 93.7172425,87.927076 93.8021806,88.2305832 C93.9034122,88.5915134 94.1084784,88.6694999 94.436758,88.6677539 C96.0434478,88.6593151 97.6502341,88.6544652 99.2569239,88.6675599 C100.388693,88.6767747 101.520173,88.716059 102.651749,88.7445765 C102.71297,88.7461284 102.773516,88.7717359 102.883039,88.7978284 C102.920254,89.2728284 102.984946,89.7495744 102.989863,90.2269023 C103.004228,91.6330846 102.986778,93.0395579 102.9999,94.4457403 C103.003264,94.8183102 102.923821,94.9991147 102.494599,94.9939738 C100.181506,94.9659414 97.8682194,94.9575995 95.5549331,94.9582785 C92.7928535,94.9590545 90.0306775,94.9831101 87.2685978,94.9781631 C86.8572119,94.9773872 86.8409185,95.1938871 86.8416898,95.4963273 C86.8458354,97.1936011 86.8435216,98.8908749 86.8434252,100.588343 C86.8433288,108.862771 86.8448713,117.137296 86.8352302,125.411821 C86.834941,125.679923 86.7570409,126.159482 86.6499282,126.179076 C86.2051841,126.260554 85.7347947,126.212443 85.2754926,126.184217 C85.2242983,126.181113 85.1588352,126.00574 85.1439879,125.903698 C85.1208493,125.745203 85.1345396,125.581276 85.1345396,125.419677 C85.1343468,115.558942 85.1343468,105.698303 85.134154,95.8376638 C85.134154,95.6598662 85.1712722,95.4688768 85.1181498,95.3085389 C85.076211,95.1818593 84.9288949,95.0837941 84.8134909,94.9921309 C84.7736731,94.9605095 84.6889278,94.985729 84.6246217,94.985729 C79.740246,94.985438 74.8558703,94.985341 69.9714947,94.985632 C69.9237712,94.985632 69.8760477,94.9922279 69.8283243,94.9957198 L69.8283243,94.9957198 Z" transform="translate(-37 -77)"/>
</svg>
